<svg xmlns="http://www.w3.org/2000/svg" width="19" height="11" viewBox="0 0 19 11">
  <path fill="#293150" fill-rule="evenodd" d="M17.5338 3.80057143C17.5338 4.34571701 17.438401 4.85056911 17.2476 5.31514286 17.056799 5.77971661 16.7886017 6.18171259 16.443 6.52114286 16.0973983 6.86057313 15.6816024 7.12542762 15.1956 7.31571429 14.7095976 7.50600095 14.171403 7.60114286 13.581 7.60114286 12.990597 7.60114286 12.4515024 7.50600095 11.9637 7.31571429 11.4758976 7.12542762 11.0583017 6.86057313 10.7109 6.52114286 10.3634983 6.18171259 10.094401 5.77971661 9.9036 5.31514286 9.71279905 4.85056911 9.6174 4.34571701 9.6174 3.80057143 9.6174 3.25542585 9.71279905 2.75057375 9.9036 2.286 10.094401 1.82142625 10.3634983 1.41943027 10.7109 1.08 11.0583017.740569731 11.4758976.475715237 11.9637.285428571 12.4515024.0951419057 12.990597 2.84217094e-14 13.581 2.84217094e-14 14.171403 2.84217094e-14 14.7095976.09599904 15.1956.288 15.6816024.48000096 16.0973983.744855454 16.443 1.08257143 16.7886017 1.4202874 17.056799 1.82142625 17.2476 2.286 17.438401 2.75057375 17.5338 3.25542585 17.5338 3.80057143zM16.0434 3.80057143C16.0434 3.39256939 15.9867006 3.02657305 15.8733 2.70257143 15.7598994 2.37856981 15.5970011 2.1034297 15.3846 1.87714286 15.1721989 1.65085601 14.9139015 1.47771489 14.6097 1.35771429 14.3054985 1.23771369 13.9626019 1.17771429 13.581 1.17771429 13.1993981 1.17771429 12.8556015 1.23771369 12.5496 1.35771429 12.2435985 1.47771489 11.9835011 1.65085601 11.7693 1.87714286 11.5550989 2.1034297 11.3904006 2.37856981 11.2752 2.70257143 11.1599994 3.02657305 11.1024 3.39256939 11.1024 3.80057143 11.1024 4.20857347 11.1599994 4.57456981 11.2752 4.89857143 11.3904006 5.22257305 11.5550989 5.49685602 11.7693 5.72142857 11.9835011 5.94600112 12.2435985 6.11828511 12.5496 6.23828571 12.8556015 6.35828631 13.1993981 6.41828571 13.581 6.41828571 13.9626019 6.41828571 14.3054985 6.35828631 14.6097 6.23828571 14.9139015 6.11828511 15.1721989 5.94600112 15.3846 5.72142857 15.5970011 5.49685602 15.7598994 5.22257305 15.8733 4.89857143 15.9867006 4.57456981 16.0434 4.20857347 16.0434 3.80057143zM3.9204 4.43314286C3.98160031 4.54285769 4.03829974 4.65685655 4.0905 4.77514286 4.14270026 4.89342916 4.19399975 5.01257083 4.2444 5.13257143 4.29480025 5.00914224 4.34699973 4.88742917 4.401 4.76742857 4.45500027 4.64742797 4.51259969 4.53257198 4.5738 4.42285714L6.885.303428571C6.91380014.251999743 6.94349985.210857297 6.9741.18 7.00470015.149142703 7.03889981.126857211 7.0767.113142857 7.11450019.0994285029 7.15679977.09085716 7.2036.0874285714 7.25040023.0839999829 7.30619968.0822857143 7.371.0822857143L8.4672.0822857143 8.4672 7.51885714 7.1874 7.51885714 7.1874 2.71542857C7.1874 2.62628527 7.19009997 2.52857196 7.1955 2.42228571 7.20090003 2.31599947 7.20899995 2.20800055 7.2198 2.09828571L4.86 6.31542857C4.80599973 6.41142905 4.73580043 6.48599973 4.6494 6.53914286 4.56299957 6.59228598 4.46220058 6.61885714 4.347 6.61885714L4.1472 6.61885714C4.03199942 6.61885714 3.93120043 6.59228598 3.8448 6.53914286 3.75839957 6.48599973 3.68820027 6.41142905 3.6342 6.31542857L1.242 2.08285714C1.25640007 2.19600057 1.26629997 2.30657089 1.2717 2.41457143 1.27710003 2.52257197 1.2798 2.62285668 1.2798 2.71542857L1.2798 7.51885714 0 7.51885714 0 .0822857143 1.0962.0822857143C1.16100032.0822857143 1.21679977.0839999829 1.2636.0874285714 1.31040023.09085716 1.35269981.0994285029 1.3905.113142857 1.42830019.126857211 1.46339984.149142703 1.4958.18 1.52820016.210857297 1.55879986.251999743 1.5876.303428571L3.9204 4.43314286z" transform="translate(0 3)"/>
</svg>
