<svg xmlns="http://www.w3.org/2000/svg" width="20" height="11" viewBox="0 0 20 11">
  <path fill="#293150" fill-rule="evenodd" d="M0 .00514285714L1.2076875.00514285714C1.33237562.00514285714 1.43657771.0334282886 1.52029688.09 1.60401604.146571711 1.66012486.222856663 1.688625.318857143L3.0031875 4.76742857C3.03525016 4.87714341 3.06464049 4.99628507 3.09135938 5.12485714 3.11807826 5.25342921 3.14390613 5.38971357 3.16884375 5.53371429 3.19734389 5.38971357 3.22851546 5.25342921 3.26235938 5.12485714 3.29620329 4.99628507 3.33271855 4.87714341 3.37190625 4.76742857L4.88953125.318857143C4.91803139.239999606 4.97414021.168000326 5.05785938.102857143 5.14157854.03771396 5.24399939.00514285714 5.365125.00514285714L5.78728125.00514285714C5.91196937.00514285714 6.01528084.0334282886 6.09721875.09 6.17915666.146571711 6.23615609.222856663 6.26821875.318857143L7.77515625 4.76742857C7.85353164 4.98685824 7.92121847 5.23028438 7.97821875 5.49771429 8.00315637 5.36399933 8.02898424 5.23542919 8.05570313 5.112 8.08242201 4.98857081 8.11003111 4.87371482 8.13853125 4.76742857L9.45309375.318857143C9.47803137.233142429 9.53324957.15942888 9.61875.0977142857 9.70425043.0359996914 9.80756189.00514285714 9.9286875.00514285714L11.0562188.00514285714 8.656875 7.44171429 7.35834375 7.44171429 5.66971875 2.36057143C5.64834364 2.29542825 5.62607824 2.22514323 5.60292188 2.14971429 5.57976551 2.07428534 5.55750011 1.99371471 5.536125 1.908 5.51474989 1.99371471 5.49248449 2.07428534 5.46932813 2.14971429 5.44617176 2.22514323 5.42390636 2.29542825 5.40253125 2.36057143L3.697875 7.44171429 2.39934375 7.44171429 0 .00514285714zM13.3860937 3.12171429L13.72275 3.12171429C13.8581257 3.12171429 13.9703433 3.10371447 14.0594062 3.06771429 14.1484692 3.03171411 14.2250622 2.97428611 14.2891875 2.89542857L16.4213437.298285714C16.5104067.18857088 16.6039214.112285929 16.7018906.0694285714 16.7998599.0265712143 16.9236555.00514285714 17.0732812.00514285714L18.3130312.00514285714 15.710625 3.096C15.6286871 3.19200048 15.5503129 3.2725711 15.4755 3.33771429 15.4006871 3.40285747 15.3205317 3.45599979 15.2350312 3.49714286 15.3525943 3.53828592 15.4585777 3.59657105 15.5529844 3.672 15.6473911 3.74742895 15.7391246 3.84342799 15.8281875 3.96L18.51075 7.44171429 17.2389375 7.44171429C17.0679366 7.44171429 16.9405785 7.41857166 16.8568594 7.37228571 16.7731402 7.32599977 16.7027815 7.25828616 16.6457812 7.16914286L14.4601875 4.42285714C14.3889371 4.33371384 14.3087817 4.26942877 14.2197187 4.23 14.1306558 4.19057123 14.0041883 4.17085714 13.8403125 4.17085714L13.3860937 4.17085714 13.3860937 7.44171429 11.948625 7.44171429 11.948625 2.84217094e-14 13.3860937 2.84217094e-14 13.3860937 3.12171429z" transform="translate(0 3)"/>
</svg>
