<svg xmlns="http://www.w3.org/2000/svg" width="16" height="9" viewBox="0 0 16 9">
  <path fill="#FF5D8D" d="M7.8102336,1.37635704 C7.61707727,1.26849012 7.38256878,1.26849012 7.18941245,1.37635704 L1.61386408,4.48998649 C1.40962243,4.60404394 1.28284977,4.82112919 1.28284977,5.05681473 C1.28284977,5.41454526 1.57002547,5.70454315 1.92427465,5.70454315 L13.0753714,5.70454315 C13.3087633,5.70454315 13.5237359,5.57652465 13.6366834,5.37027583 C13.8081184,5.05722524 13.695786,4.66310628 13.385782,4.48998649 L7.8102336,1.37635704 Z M8.43105476,0.242700573 L14.0066031,3.35633003 C14.9366153,3.87568939 15.2736125,5.05804628 14.7593074,5.99719805 C14.420465,6.61594448 13.7755471,7 13.0753714,7 L1.92427465,7 C0.861527108,7 2.13637403e-16,6.13000632 0,5.05681473 C0,4.34975811 0.380317978,3.69850237 0.993042922,3.35633003 L6.56859129,0.242700573 C7.14806028,-0.0809001909 7.85158577,-0.0809001909 8.43105476,0.242700573 Z"/>
</svg>
