<svg xmlns="http://www.w3.org/2000/svg" width="42" height="42" viewBox="0 0 42 42">
  <defs>
    <linearGradient id="home-logo-a" x1="73.358%" x2="20.191%" y1="6.903%" y2="93.021%">
      <stop offset="0%" stop-color="#FF97F1"/>
      <stop offset="100%" stop-color="#FF39E4"/>
    </linearGradient>
    <linearGradient id="home-logo-b" x1="110.031%" x2="-25.165%" y1="50%" y2="50%">
      <stop offset="0%" stop-color="#FF79ED"/>
      <stop offset="100%" stop-color="#FF5FE9"/>
    </linearGradient>
    <linearGradient id="home-logo-c" x1="100%" x2="-16.454%" y1="50%" y2="50%">
      <stop offset="0%" stop-color="#FF8BEF"/>
      <stop offset="100%" stop-color="#FF5FE9"/>
    </linearGradient>
    <linearGradient id="home-logo-d" x1="115.315%" x2="-32.166%" y1="50%" y2="50%">
      <stop offset="0%" stop-color="#FF69EA"/>
      <stop offset="100%" stop-color="#FF5AE8"/>
    </linearGradient>
  </defs>
  <g fill="none" transform="translate(12)">
    <path fill="url(#home-logo-a)" d="M13.050196,28.7892823 L12.4285714,28.1980235 L12.4285714,5.92857143 C12.4285714,3.75888134 10.6696901,2 8.5,2 C6.33030991,2 4.57142857,3.75888134 4.57142857,5.92857143 L4.57142857,28.3096447 L3.98320856,28.8958456 C2.76595238,30.1089232 2.07142857,31.7469265 2.07142857,33.5 C2.07142857,37.0898509 4.9815777,40 8.57142857,40 C12.1612794,40 15.0714286,37.0898509 15.0714286,33.5 C15.0714286,31.6936895 14.3336519,30.0100426 13.050196,28.7892823 Z M14.4285714,27.3401166 C16.0565882,28.8886064 17.0714286,31.0757889 17.0714286,33.5 C17.0714286,38.1944204 13.2658489,42 8.57142857,42 C3.8770082,42 0.0714285714,38.1944204 0.0714285714,33.5 C0.0714285714,31.1475005 1.02711613,29.0182138 2.57142857,27.4792026 L2.57142857,5.92857143 C2.57142857,2.65431184 5.22574041,-2.86706691e-16 8.5,-8.8817842e-16 C11.7742596,-1.48965015e-15 14.4285714,2.65431184 14.4285714,5.92857143 L14.4285714,27.3401166 Z"/>
    <path fill="url(#home-logo-b)" d="M12.5,14.7727273 C13.0522847,14.7727273 13.5,15.2204425 13.5,15.7727273 C13.5,16.325012 13.0522847,16.7727273 12.5,16.7727273 L8,16.7727273 C7.44771525,16.7727273 7,16.325012 7,15.7727273 C7,15.2204425 7.44771525,14.7727273 8,14.7727273 L12.5,14.7727273 Z"/>
    <path fill="url(#home-logo-c)" d="M12.5,8.86363636 C13.0522847,8.86363636 13.5,9.31135161 13.5,9.86363636 C13.5,10.4159211 13.0522847,10.8636364 12.5,10.8636364 L9.28571429,10.8636364 C8.73342954,10.8636364 8.28571429,10.4159211 8.28571429,9.86363636 C8.28571429,9.31135161 8.73342954,8.86363636 9.28571429,8.86363636 L12.5,8.86363636 Z"/>
    <path fill="url(#home-logo-d)" d="M12.5,20.6818182 C13.0522847,20.6818182 13.5,21.1295334 13.5,21.6818182 C13.5,22.2341029 13.0522847,22.6818182 12.5,22.6818182 L9.28571429,22.6818182 C8.73342954,22.6818182 8.28571429,22.2341029 8.28571429,21.6818182 C8.28571429,21.1295334 8.73342954,20.6818182 9.28571429,20.6818182 L12.5,20.6818182 Z"/>
  </g>
</svg>
