<svg xmlns="http://www.w3.org/2000/svg" width="34" height="34" viewBox="0 0 34 34">
  <defs>
    <linearGradient id="humidity-a" x1="27.898%" x2="74.885%" y1="4.768%" y2="93.998%">
      <stop offset="0%" stop-color="#00ECFF"/>
      <stop offset="100%" stop-color="#C7F6FF"/>
    </linearGradient>
    <linearGradient id="humidity-b" x1="0%" x2="79.446%" y1="84.8%" y2="21.168%">
      <stop offset="0%" stop-color="#00ECFF"/>
      <stop offset="100%" stop-color="#C7F6FF"/>
    </linearGradient>
    <linearGradient id="humidity-c" x1="-121.87%" x2="100%" y1="217.745%" y2="25.001%">
      <stop offset="0%" stop-color="#00ECFF"/>
      <stop offset="100%" stop-color="#C7F6FF"/>
    </linearGradient>
    <linearGradient id="humidity-d" x1="0%" x2="50%" y1="176.39%" y2="0%">
      <stop offset="0%" stop-color="#00ECFF"/>
      <stop offset="100%" stop-color="#C7F6FF"/>
    </linearGradient>
    <linearGradient id="humidity-e" x1="-50.683%" x2="79.38%" y1="195.26%" y2="0%">
      <stop offset="0%" stop-color="#00ECFF"/>
      <stop offset="100%" stop-color="#C7F6FF"/>
    </linearGradient>
    <linearGradient id="humidity-f" x1="-16.088%" x2="78.925%" y1="154.673%" y2="25.564%">
      <stop offset="0%" stop-color="#00ECFF"/>
      <stop offset="100%" stop-color="#C7F6FF"/>
    </linearGradient>
    <linearGradient id="humidity-g" x1="-38.248%" x2="100%" y1="188.075%" y2="22.371%">
      <stop offset="0%" stop-color="#00ECFF"/>
      <stop offset="100%" stop-color="#C7F6FF"/>
    </linearGradient>
  </defs>
  <g fill="none" fill-rule="evenodd" transform="translate(-2)">
    <path fill="url(#humidity-a)" fill-rule="nonzero" d="M17.5,30.5 L17.5,29.5 C24.127417,29.5 29.5,24.127417 29.5,17.5 C29.5,10.872583 24.127417,5.5 17.5,5.5 C10.872583,5.5 5.5,10.872583 5.5,17.5 C5.5,19.8847342 6.19643922,22.1646451 7.48329664,24.110499 L6.64919876,24.6621155 C5.25494961,22.5538748 4.5,20.0824203 4.5,17.5 C4.5,10.3202983 10.3202983,4.5 17.5,4.5 C24.6797017,4.5 30.5,10.3202983 30.5,17.5 C30.5,24.6797017 24.6797017,30.5 17.5,30.5 Z" transform="rotate(-115 17.5 17.5)"/>
    <path fill="url(#humidity-b)" fill-rule="nonzero" d="M14,25.2554786 C11.3365159,25.2554786 9.5,23.5006685 9.5,20.5834054 C9.5,18.5610385 10.8808677,15.9431186 13.6167963,12.6788226 L14,12.2216139 L14.3832037,12.6788226 C17.1191323,15.9431186 18.5,18.5610385 18.5,20.5834054 C18.5,23.5006685 16.6634841,25.2554786 14,25.2554786 Z M10.5,20.5834054 C10.5,22.9379473 11.8788769,24.2554786 14,24.2554786 C16.1211231,24.2554786 17.5,22.9379473 17.5,20.5834054 C17.5,18.9449569 16.3406979,16.6644109 14,13.7852785 C11.6593021,16.6644109 10.5,18.9449569 10.5,20.5834054 Z"/>
    <path fill="url(#humidity-c)" fill-rule="nonzero" d="M19.6700591,15.2554786 C18.493356,15.2554786 17.6700591,14.406856 17.6700591,13.0677374 C17.6700591,12.1706858 18.2128394,11.0606141 19.2752245,9.69323359 L19.6700591,9.18504766 L20.0648937,9.69323359 C21.1272788,11.0606141 21.6700591,12.1706858 21.6700591,13.0677374 C21.6700591,14.406856 20.8467622,15.2554786 19.6700591,15.2554786 Z M18.6700591,13.0677374 C18.6700591,13.8612378 19.0525345,14.2554786 19.6700591,14.2554786 C20.2875837,14.2554786 20.6700591,13.8612378 20.6700591,13.0677374 C20.6700591,12.5428757 20.3414331,11.7908945 19.6700591,10.8387812 C18.9986851,11.7908945 18.6700591,12.5428757 18.6700591,13.0677374 Z"/>
    <path fill="url(#humidity-d)" fill-rule="nonzero" d="M29,24.5 C25.4101491,24.5 22.5,21.5898509 22.5,18 C22.5,14.4101491 25.4101491,11.5 29,11.5 C32.5898509,11.5 35.5,14.4101491 35.5,18 C35.5,21.5898509 32.5898509,24.5 29,24.5 Z M29,23.5 C32.0375661,23.5 34.5,21.0375661 34.5,18 C34.5,14.9624339 32.0375661,12.5 29,12.5 C25.9624339,12.5 23.5,14.9624339 23.5,18 C23.5,21.0375661 25.9624339,23.5 29,23.5 Z"/>
    <g transform="translate(25.5 15)">
      <path stroke="url(#humidity-e)" d="M2,1.50634697 C2,1.75176427 1.97310951,1.96826422 1.91932773,2.15585331 C1.86554595,2.3434424 1.79271755,2.49929416 1.70084034,2.62341326 C1.60896313,2.74753236 1.50252161,2.84132549 1.38151261,2.90479549 C1.2605036,2.96826548 1.13277378,3 0.998319328,3 C0.859383059,3 0.728852151,2.96826548 0.606722689,2.90479549 C0.484593227,2.84132549 0.378711933,2.74753236 0.28907563,2.62341326 C0.199439328,2.49929416 0.128851798,2.3434424 0.0773109244,2.15585331 C0.0257700504,1.96826422 0,1.75176427 0,1.50634697 C0,1.25810877 0.0257700504,1.03949319 0.0773109244,0.850493653 C0.128851798,0.661494118 0.199439328,0.504231939 0.28907563,0.378702398 C0.378711933,0.253172856 0.484593227,0.158674506 0.606722689,0.0952045134 C0.728852151,0.0317345205 0.859383059,0 0.998319328,0 C1.1372556,0 1.26722629,0.0317345205 1.38823529,0.0952045134 C1.5092443,0.158674506 1.6151256,0.253172856 1.70588235,0.378702398 C1.79663911,0.504231939 1.86834708,0.661494118 1.9210084,0.850493653 C1.97366973,1.03949319 2,1.25810877 2,1.50634697 Z"/>
      <path fill="url(#humidity-f)" d="M4.84235981,0.0763250883 C4.85750219,0.0537101343 4.87579896,0.0353357597 4.89725066,0.0212014134 C4.91870237,0.00706706714 4.94709391,0 4.98242613,0 L6,0 L2.15385462,5.92367491 C2.12104612,5.97455856 2.07688151,6 2.02135945,6 L1,6 L4.84235981,0.0763250883 Z"/>
      <path stroke="url(#humidity-g)" d="M7,4.50634697 C7,4.75176427 6.97306424,4.96826422 6.91919192,5.15585331 C6.8653196,5.3434424 6.79292975,5.49929416 6.7020202,5.62341326 C6.61111066,5.74753236 6.50505111,5.84132549 6.38383838,5.90479549 C6.26262566,5.96826548 6.13468081,6 6,6 C5.86082983,6 5.73007918,5.96826548 5.60774411,5.90479549 C5.48540904,5.84132549 5.37934949,5.74753236 5.28956229,5.62341326 C5.19977508,5.49929416 5.12906872,5.3434424 5.07744108,5.15585331 C5.02581343,4.96826422 5,4.75176427 5,4.50634697 C5,4.25810877 5.02581343,4.03949319 5.07744108,3.85049365 C5.12906872,3.66149412 5.19977508,3.50423194 5.28956229,3.3787024 C5.37934949,3.25317286 5.48540904,3.15867451 5.60774411,3.09520451 C5.73007918,3.03173452 5.86082983,3 6,3 C6.13917017,3 6.26935966,3.03173452 6.39057239,3.09520451 C6.51178512,3.15867451 6.61784466,3.25317286 6.70875421,3.3787024 C6.79966375,3.50423194 6.87093128,3.66149412 6.92255892,3.85049365 C6.97418657,4.03949319 7,4.25810877 7,4.50634697 Z"/>
    </g>
  </g>
</svg>
