<svg xmlns="http://www.w3.org/2000/svg" width="60" height="60" viewBox="0 0 60 60">
  <g fill="none">
    <path fill="#494C64" d="M30,59.6551724 C13.6219005,59.6551724 0.344827586,46.3780995 0.344827586,30 C0.344827586,13.6219005 13.6219005,0.344827586 30,0.344827586 C46.3780995,0.344827586 59.6551724,13.6219005 59.6551724,30 C59.6551724,46.3780995 46.3780995,59.6551724 30,59.6551724 Z M30,50.6896552 C41.426581,50.6896552 50.6896552,41.426581 50.6896552,30 C50.6896552,18.573419 41.426581,9.31034483 30,9.31034483 C18.573419,9.31034483 9.31034483,18.573419 9.31034483,30 C9.31034483,41.426581 18.573419,50.6896552 30,50.6896552 Z"/>
    <path fill="#697A90" d="M52.1984332,10.33593 L45.4892021,16.2829222 C41.5827136,11.8757306 36.0037029,9.31034483 30,9.31034483 C20.2390173,9.31034483 11.8622212,16.1254216 9.7933699,25.5305999 L1.03719085,23.6045085 C4.0057203,10.1093151 16.0078039,0.344827586 30,0.344827586 C38.5962803,0.344827586 46.6078243,4.02876039 52.1984332,10.33593 Z"/>
  </g>
</svg>
