<svg xmlns="http://www.w3.org/2000/svg" width="34" height="34" viewBox="0 0 34 34">
  <defs>
    <linearGradient id="inside-a" x1="100%" x2="0%" y1="27.154%" y2="79.996%">
      <stop offset="0%" stop-color="#FF94E5"/>
      <stop offset="100%" stop-color="#FF3FB8"/>
    </linearGradient>
    <linearGradient id="inside-b" x1="90.209%" x2="0%" y1="39.19%" y2="100%">
      <stop offset="0%" stop-color="#FE68D4"/>
      <stop offset="100%" stop-color="#FF3FB7"/>
    </linearGradient>
    <linearGradient id="inside-c" x1="76.172%" x2="-32.166%" y1="50%" y2="50%">
      <stop offset="0%" stop-color="#FF91E3"/>
      <stop offset="100%" stop-color="#FF5BC6"/>
    </linearGradient>
    <linearGradient id="inside-d" x1="115.315%" x2="-32.166%" y1="50%" y2="50%">
      <stop offset="0%" stop-color="#FF7CD8"/>
      <stop offset="100%" stop-color="#FF5BC6"/>
    </linearGradient>
    <linearGradient id="inside-e" x1="87.002%" x2="-32.166%" y1="50%" y2="50%">
      <stop offset="0%" stop-color="#FF85DD"/>
      <stop offset="100%" stop-color="#FF5BC6"/>
    </linearGradient>
  </defs>
  <g fill="none" fill-rule="evenodd">
    <g fill-rule="nonzero" transform="translate(0 4)">
      <path fill="url(#inside-a)" d="M33.2655874,10.4269915 C33.4995524,10.5736714 33.570311,10.882245 33.4236311,11.11621 C33.2769512,11.350175 32.9683776,11.4209336 32.7344126,11.2742537 L17.2655874,1.5763689 C17.1031689,1.4745437 16.8968311,1.4745437 16.7344126,1.5763689 L1.26558744,11.2742537 C1.03162244,11.4209336 0.723048788,11.350175 0.576368896,11.11621 C0.429689004,10.882245 0.500447563,10.5736714 0.734412562,10.4269915 L16.2032377,0.729106687 C16.6904933,0.423631104 17.3095067,0.423631104 17.7967623,0.729106687 L33.2655874,10.4269915 Z"/>
      <path fill="url(#inside-b)" d="M5.5,19.8059245 C5.5,20.0820668 5.27614237,20.3059245 5,20.3059245 C4.72385763,20.3059245 4.5,20.0820668 4.5,19.8059245 L4.5,12.9807379 C4.5,12.4672226 4.76268929,11.9893953 5.19626592,11.7142421 L16.1962659,4.73350424 C16.6868629,4.42216525 17.3131371,4.42216525 17.8037341,4.73350424 L28.8037341,11.7142421 C29.2373107,11.9893953 29.5,12.4672226 29.5,12.9807379 L29.5,19.8059245 C29.5,20.0820668 29.2761424,20.3059245 29,20.3059245 C28.7238576,20.3059245 28.5,20.0820668 28.5,19.8059245 L28.5,12.9807379 C28.5,12.8095661 28.4124369,12.6502903 28.2679114,12.5585726 L17.2679114,5.57783475 C17.104379,5.47405508 16.895621,5.47405508 16.7320886,5.57783475 L5.73208864,12.5585726 C5.5875631,12.6502903 5.5,12.8095661 5.5,12.9807379 L5.5,19.8059245 Z"/>
    </g>
    <g fill-rule="nonzero" transform="translate(13 17)">
      <path fill="url(#inside-a)" d="M5.28575907,8.81101461 L5,8.51940031 L5,2.5 C5,1.67157288 4.32842712,1 3.5,1 C2.67157288,1 2,1.67157288 2,2.5 L2,8.51940031 L1.71424093,8.81101461 C1.25871728,9.27587198 1,9.89654738 1,10.5606061 C1,11.9413179 2.11928813,13.0606061 3.5,13.0606061 C4.88071187,13.0606061 6,11.9413179 6,10.5606061 C6,9.89654738 5.74128272,9.27587198 5.28575907,8.81101461 Z M7,10.5606061 C7,12.4936027 5.43299662,14.0606061 3.5,14.0606061 C1.56700338,14.0606061 0,12.4936027 0,10.5606061 C0,9.60695352 0.381406489,8.74238325 1,8.11111469 L1,2.5 C1,1.11928813 2.11928813,2.53632657e-16 3.5,0 C4.88071187,-2.53632657e-16 6,1.11928813 6,2.5 L6,8.11111469 C6.61859351,8.74238325 7,9.60695352 7,10.5606061 Z"/>
      <path fill="url(#inside-c)" d="M5.25,2.68181818 C5.52614237,2.68181818 5.75,2.90567581 5.75,3.18181818 C5.75,3.45796056 5.52614237,3.68181818 5.25,3.68181818 L4,3.68181818 C3.72385763,3.68181818 3.5,3.45796056 3.5,3.18181818 C3.5,2.90567581 3.72385763,2.68181818 4,2.68181818 L5.25,2.68181818 Z"/>
      <path fill="url(#inside-d)" d="M5.25,6.92424242 C5.52614237,6.92424242 5.75,7.14810005 5.75,7.42424242 C5.75,7.7003848 5.52614237,7.92424242 5.25,7.92424242 L4,7.92424242 C3.72385763,7.92424242 3.5,7.7003848 3.5,7.42424242 C3.5,7.14810005 3.72385763,6.92424242 4,6.92424242 L5.25,6.92424242 Z"/>
      <path fill="url(#inside-e)" d="M5.25,4.8030303 C5.52614237,4.8030303 5.75,5.02688793 5.75,5.3030303 C5.75,5.57917268 5.52614237,5.8030303 5.25,5.8030303 L3.5,5.8030303 C3.22385763,5.8030303 3,5.57917268 3,5.3030303 C3,5.02688793 3.22385763,4.8030303 3.5,4.8030303 L5.25,4.8030303 Z"/>
    </g>
  </g>
</svg>
