<svg xmlns="http://www.w3.org/2000/svg" width="34" height="34" viewBox="0 0 34 34">
  <defs>
    <linearGradient id="outside-a" x1="80.676%" x2="-29.596%" y1="28.366%" y2="28.366%">
      <stop offset="0%" stop-color="#C5FFF9"/>
      <stop offset="100%" stop-color="#2AFFDA"/>
    </linearGradient>
    <linearGradient id="outside-b" x1="71.603%" x2="-14.36%" y1="50%" y2="50%">
      <stop offset="0%" stop-color="#88FFED"/>
      <stop offset="100%" stop-color="#2AFFDA"/>
    </linearGradient>
    <linearGradient id="outside-c" x1="76.716%" x2="0%" y1="81.887%" y2="81.887%">
      <stop offset="0%" stop-color="#A4FFF3"/>
      <stop offset="100%" stop-color="#2AFFDA"/>
    </linearGradient>
    <linearGradient id="outside-d" x1="74.397%" x2="3.363%" y1="17.312%" y2="81.887%">
      <stop offset="0%" stop-color="#C5FFF9"/>
      <stop offset="100%" stop-color="#2AFFDA"/>
    </linearGradient>
  </defs>
  <g fill="none" fill-rule="evenodd">
    <g fill-rule="nonzero" transform="translate(23 7)">
      <path fill="url(#outside-a)" d="M5.25,2.68181818 C5.52614237,2.68181818 5.75,2.90567581 5.75,3.18181818 C5.75,3.45796056 5.52614237,3.68181818 5.25,3.68181818 L4,3.68181818 C3.72385763,3.68181818 3.5,3.45796056 3.5,3.18181818 C3.5,2.90567581 3.72385763,2.68181818 4,2.68181818 L5.25,2.68181818 Z"/>
      <path fill="url(#outside-b)" d="M5.25,6.92424242 C5.52614237,6.92424242 5.75,7.14810005 5.75,7.42424242 C5.75,7.7003848 5.52614237,7.92424242 5.25,7.92424242 L4,7.92424242 C3.72385763,7.92424242 3.5,7.7003848 3.5,7.42424242 C3.5,7.14810005 3.72385763,6.92424242 4,6.92424242 L5.25,6.92424242 Z"/>
      <path fill="url(#outside-c)" d="M5.25,4.8030303 C5.52614237,4.8030303 5.75,5.02688793 5.75,5.3030303 C5.75,5.57917268 5.52614237,5.8030303 5.25,5.8030303 L3.5,5.8030303 C3.22385763,5.8030303 3,5.57917268 3,5.3030303 C3,5.02688793 3.22385763,4.8030303 3.5,4.8030303 L5.25,4.8030303 Z"/>
      <path fill="url(#outside-d)" d="M5.28575907,8.81101461 L5,8.51940031 L5,2.5 C5,1.67157288 4.32842712,1 3.5,1 C2.67157288,1 2,1.67157288 2,2.5 L2,8.51940031 L1.71424093,8.81101461 C1.25871728,9.27587198 1,9.89654738 1,10.5606061 C1,11.9413179 2.11928813,13.0606061 3.5,13.0606061 C4.88071187,13.0606061 6,11.9413179 6,10.5606061 C6,9.89654738 5.74128272,9.27587198 5.28575907,8.81101461 Z M7,10.5606061 C7,12.4936027 5.43299662,14.0606061 3.5,14.0606061 C1.56700338,14.0606061 0,12.4936027 0,10.5606061 C0,9.60695352 0.381406489,8.74238325 1,8.11111469 L1,2.5 C1,1.11928813 2.11928813,2.53632657e-16 3.5,0 C4.88071187,-2.53632657e-16 6,1.11928813 6,2.5 L6,8.11111469 C6.61859351,8.74238325 7,9.60695352 7,10.5606061 Z"/>
    </g>
    <path fill="url(#outside-d)" fill-rule="nonzero" d="M14.9111136,27.7208384 C14.7892247,27.6261161 14.7179222,27.4804038 14.7179222,27.3260366 L14.7179222,25.3820949 C14.7179222,25.1059526 14.9417798,24.8820949 15.2179222,24.8820949 L20.8009966,24.8820949 L16.2598651,19.9179959 C15.9663794,19.5971745 16.1939754,19.080509 16.628786,19.080509 L19.3931676,19.080509 L15.3859945,14.6804703 C15.0935799,14.3593871 15.3213841,13.8438057 15.7556659,13.8438057 L17.9374367,13.8438057 L13.7288066,8.78458433 L9.56985447,13.8438057 L11.5110556,13.8438057 C11.9384582,13.8438057 12.1688327,14.3453253 11.890371,14.669566 L8.10220323,19.080509 L10.7676177,19.080509 C11.189933,19.080509 11.4220428,19.5716812 11.1539145,19.8979594 L7.05805986,24.8820949 L12.6019885,24.8820949 C12.8781309,24.8820949 13.1019885,25.1059526 13.1019885,25.3820949 L13.1019885,27.3260366 C13.1019885,27.4706509 13.0393753,27.6081821 12.930306,27.7031409 L11.524833,28.9267852 L16.4629277,28.9267852 L14.9111136,27.7208384 Z M15.7179222,27.0813678 L18.2279773,29.0319834 C18.6039713,29.324176 18.3973493,29.9267852 17.9211686,29.9267852 L10.189077,29.9267852 C9.72678232,29.9267852 9.5120929,29.3532398 9.86075944,29.0496809 L12.1019885,27.098404 L12.1019885,25.8820949 L6,25.8820949 C5.57768464,25.8820949 5.34557481,25.3909228 5.61370315,25.0646446 L9.70955779,20.080509 L7.01371546,20.080509 C6.58631288,20.080509 6.3559384,19.5789894 6.63440005,19.2547486 L10.4225678,14.8438057 L8.51156941,14.8438057 C8.08921566,14.8438057 7.85711839,14.3525555 8.12532476,14.0262918 L13.3402743,7.68248611 C13.5395378,7.44008904 13.910232,7.4390082 14.1109055,7.68023918 L19.3881468,14.0240448 C19.659123,14.3497871 19.4274772,14.8438057 19.0037602,14.8438057 L16.8872988,14.8438057 L20.8944718,19.2438444 C21.1868864,19.5649275 20.9590822,20.080509 20.5248004,20.080509 L17.7638354,20.080509 L22.3049668,25.0446081 C22.5984525,25.3654295 22.3708565,25.8820949 21.936046,25.8820949 L15.7179222,25.8820949 L15.7179222,27.0813678 Z"/>
  </g>
</svg>
