<svg xmlns="http://www.w3.org/2000/svg" width="16" height="23" viewBox="0 0 16 23">
  <g fill="#293150" fill-rule="evenodd" transform="translate(1 2)">
    <path fill-rule="nonzero" d="M7,20.625 C2.46969544,20.625 -0.636363636,17.7396614 -0.636363636,12.9019084 C-0.636363636,9.52654413 1.75830335,5.11286212 6.51434361,-0.403870405 L7,-0.967203824 L7.48565639,-0.403870405 C12.2416967,5.11286212 14.6363636,9.52654413 14.6363636,12.9019084 C14.6363636,17.7396614 11.5303046,20.625 7,20.625 Z M0.636363636,12.9019084 C0.636363636,17.0332586 3.15724182,19.375 7,19.375 C10.8427582,19.375 13.3636364,17.0332586 13.3636364,12.9019084 C13.3636364,10.0089559 11.2523656,6.01340448 7,0.9732408 C2.74763443,6.01340448 0.636363636,10.0089559 0.636363636,12.9019084 Z"/>
    <path d="M3.65328409 2.585C3.65328409 2.89250154 3.60734705 3.16999876 3.51547159 3.4175 3.42359613 3.66500124 3.30081895 3.87593663 3.14713636 4.0503125 2.99345378 4.22468837 2.81471693 4.35874953 2.61092045 4.4525 2.40712398 4.54625047 2.19497838 4.593125 1.97447727 4.593125 1.73393062 4.593125 1.51176238 4.54625047 1.30796591 4.4525 1.10416944 4.35874953.927938243 4.22468837.779267045 4.0503125.630595848 3.87593663.514500418 3.66500124.430977273 3.4175.347454128 3.16999876.305693182 2.89250154.305693182 2.585.305693182 2.26999842.347454128 1.98500127.430977273 1.73.514500418 1.47499872.630595848 1.25937588.779267045 1.083125.927938243.906874119 1.10416944.770937978 1.30796591.6753125 1.51176238.579687022 1.73393062.531875 1.97447727.531875 2.21502393.531875 2.43802738.579687022 2.64349432.6753125 2.84896125.770937978 3.02686288.906874119 3.17720455 1.083125 3.32754621 1.25937588 3.44447686 1.47499872 3.528 1.73 3.61152314 1.98500127 3.65328409 2.26999842 3.65328409 2.585zM2.69611364 2.585C2.69611364 2.36749891 2.67773882 2.18562573 2.64098864 2.039375 2.60423845 1.89312427 2.5532901 1.77500045 2.48814205 1.685 2.42299399 1.59499955 2.34615385 1.5303127 2.25761932 1.4909375 2.16908478 1.4515623 2.07470505 1.431875 1.97447727 1.431875 1.8742495 1.431875 1.78070498 1.4515623 1.69384091 1.4909375 1.60697684 1.5303127 1.53180714 1.59499955 1.46832955 1.685 1.40485196 1.77500045 1.35557404 1.89312427 1.32049432 2.039375 1.2854146 2.18562573 1.267875 2.36749891 1.267875 2.585 1.267875 2.79500105 1.2854146 2.9703118 1.32049432 3.1109375 1.35557404 3.2515632 1.40485196 3.36499957 1.46832955 3.45125 1.53180714 3.53750043 1.60697684 3.59937481 1.69384091 3.636875 1.78070498 3.67437519 1.8742495 3.693125 1.97447727 3.693125 2.07470505 3.693125 2.16908478 3.67437519 2.25761932 3.636875 2.34615385 3.59937481 2.42299399 3.53750043 2.48814205 3.45125 2.5532901 3.36499957 2.60423845 3.2515632 2.64098864 3.1109375 2.67773882 2.9703118 2.69611364 2.79500105 2.69611364 2.585zM8.85619318 5.5875C8.85619318 5.89500154 8.81025614 6.17249876 8.71838068 6.42 8.62650522 6.66750124 8.50372804 6.87843663 8.35004545 7.0528125 8.19636287 7.22718837 8.01762602 7.36218702 7.81382955 7.4578125 7.61003307 7.55343798 7.39788747 7.60125 7.17738636 7.60125 6.93683971 7.60125 6.71467147 7.55343798 6.510875 7.4578125 6.30707853 7.36218702 6.13084733 7.22718837 5.98217614 7.0528125 5.83350494 6.87843663 5.71740951 6.66750124 5.63388636 6.42 5.55036322 6.17249876 5.50860227 5.89500154 5.50860227 5.5875 5.50860227 5.27249842 5.55036322 4.98750128 5.63388636 4.7325 5.71740951 4.47749872 5.83350494 4.26187588 5.98217614 4.085625 6.13084733 3.90937412 6.30707853 3.77343798 6.510875 3.6778125 6.71467147 3.58218702 6.93683971 3.534375 7.17738636 3.534375 7.41793302 3.534375 7.64093647 3.58218702 7.84640341 3.6778125 8.05187035 3.77343798 8.22977198 3.90937412 8.38011364 4.085625 8.5304553 4.26187588 8.64738595 4.47749872 8.73090909 4.7325 8.81443224 4.98750128 8.85619318 5.27249842 8.85619318 5.5875zM7.90403409 5.5875C7.90403409 5.36999891 7.88482406 5.18812573 7.84640341 5.041875 7.80798276 4.89562427 7.75619919 4.77750045 7.69105114 4.6875 7.62590308 4.59749955 7.54906294 4.5328127 7.46052841 4.4934375 7.37199388 4.4540623 7.27761414 4.434375 7.17738636 4.434375 7.07715859 4.434375 6.98361407 4.4540623 6.89675 4.4934375 6.80988593 4.5328127 6.73555145 4.59749955 6.67374432 4.6875 6.61193719 4.77750045 6.56265927 4.89562427 6.52590909 5.041875 6.48915891 5.18812573 6.47078409 5.36999891 6.47078409 5.5875 6.47078409 5.79750105 6.48915891 5.97374929 6.52590909 6.11625 6.56265927 6.25875071 6.61193719 6.37312457 6.67374432 6.459375 6.73555145 6.54562543 6.80988593 6.60749981 6.89675 6.645 6.98361407 6.68250019 7.07715859 6.70125 7.17738636 6.70125 7.27761414 6.70125 7.37199388 6.68250019 7.46052841 6.645 7.54906294 6.60749981 7.62590308 6.54562543 7.69105114 6.459375 7.75619919 6.37312457 7.80798276 6.25875071 7.84640341 6.11625 7.88482406 5.97374929 7.90403409 5.79750105 7.90403409 5.5875zM6.06375.835625C6.10384111.779374719 6.15395424.728750225 6.21409091.68375 6.27422757.638749775 6.35774947.61625 6.46465909.61625L7.36169318.61625 3.093125 7.291875C3.05303389 7.3518753 3.00208554 7.4015623 2.94027841 7.4409375 2.87847128 7.4803127 2.8041368 7.5 2.71727273 7.5L1.79518182 7.5 6.06375.835625z" transform="translate(2.545 8.75)"/>
  </g>
</svg>
