<svg xmlns="http://www.w3.org/2000/svg" width="17" height="22" viewBox="0 0 17 22">
  <g fill="#293150" transform="translate(1 1)">
    <path d="M10,17.5 L10,13.2756443 L10.6240926,12.9146262 C12.543769,11.8041533 13.75,9.75782594 13.75,7.5 C13.75,4.04822031 10.9517797,1.25 7.5,1.25 C4.04822031,1.25 1.25,4.04822031 1.25,7.5 C1.25,9.75782594 2.45623098,11.8041533 4.37590745,12.9146262 L5,13.2756443 L5,17.5 C5,18.1903559 5.55964406,18.75 6.25,18.75 L8.75,18.75 C9.44035594,18.75 10,18.1903559 10,17.5 Z M11.25,17.5 C11.25,18.8807119 10.1307119,20 8.75,20 L6.25,20 C4.86928813,20 3.75,18.8807119 3.75,17.5 L3.75,13.9966335 C1.50824486,12.6998482 0,10.2760588 0,7.5 C0,3.35786438 3.35786438,0 7.5,0 C11.6421356,0 15,3.35786438 15,7.5 C15,10.2760588 13.4917551,12.6998482 11.25,13.9966335 L11.25,17.5 Z"/>
    <path d="M11.006271,7.40278577 C11.0421934,7.74608944 10.7930117,8.05351295 10.4497081,8.0894354 C10.1064044,8.12535785 9.79898089,7.87617614 9.76305844,7.53287248 C9.5638005,5.62860424 7.95180694,4.1677172 6.02167795,4.1677172 C3.94397541,4.1677172 2.25966472,5.8520279 2.25966472,7.92973043 C2.25966472,8.2749084 1.97984268,8.55473043 1.63466472,8.55473043 C1.28948675,8.55473043 1.00966472,8.2749084 1.00966472,7.92973043 C1.00966472,5.16167196 3.25361948,2.9177172 6.02167795,2.9177172 C8.59342242,2.9177172 10.7405768,4.86359966 11.006271,7.40278577 Z" transform="rotate(-40 6.01 5.736)"/>
    <path d="M8.64434917,8.76589233 C8.98952714,8.76589233 9.26934917,8.48607029 9.26934917,8.14089233 C9.26934917,7.79571436 8.98952714,7.51589233 8.64434917,7.51589233 C8.2991712,7.51589233 8.01934917,7.79571436 8.01934917,8.14089233 C8.01934917,8.48607029 8.2991712,8.76589233 8.64434917,8.76589233 Z M8.64434917,10.0158923 C7.60881527,10.0158923 6.76934917,9.17642623 6.76934917,8.14089233 C6.76934917,7.10535842 7.60881527,6.26589233 8.64434917,6.26589233 C9.67988308,6.26589233 10.5193492,7.10535842 10.5193492,8.14089233 C10.5193492,9.17642623 9.67988308,10.0158923 8.64434917,10.0158923 Z M9.74122647,7.62628267 L7.71546184,7.37755005 L8.49088046,4.29617388 C8.74748232,3.85553217 8.74748232,3.85553217 9.25709424,3.83805865 C9.63540439,4.03429839 9.63540439,4.03429839 9.73429346,4.4488458 L9.74122647,7.62628267 Z" transform="rotate(61 8.644 6.927)"/>
  </g>
</svg>
