<svg xmlns="http://www.w3.org/2000/svg" width="12" height="24" viewBox="0 0 12 24">
  <g fill="#293150" transform="translate(1)">
    <path d="M7.55108438,16.5888121 L7.14285714,16.1771213 L7.14285714,3.52941176 C7.14285714,2.35986759 6.18346732,1.41176471 5,1.41176471 C3.81653268,1.41176471 2.85714286,2.35986759 2.85714286,3.52941176 L2.85714286,16.1771213 L2.44891562,16.5888121 C1.79816755,17.2450813 1.42857143,18.1213289 1.42857143,19.0588235 C1.42857143,21.0080638 3.02755447,22.5882353 5,22.5882353 C6.97244553,22.5882353 8.57142857,21.0080638 8.57142857,19.0588235 C8.57142857,18.1213289 8.20183245,17.2450813 7.55108438,16.5888121 Z M10,19.0588235 C10,21.7877599 7.76142375,24 5,24 C2.23857625,24 0,21.7877599 0,19.0588235 C0,17.7124905 0.544866413,16.4919207 1.42857143,15.6007181 L1.42857143,3.52941176 C1.42857143,1.58017147 3.02755446,3.58069633e-16 5,0 C6.97244554,-3.58069633e-16 8.57142857,1.58017147 8.57142857,3.52941176 L8.57142857,15.6007181 C9.45513359,16.4919207 10,17.7124905 10,19.0588235 Z"/>
    <path d="M7.5 5.19786096C7.89448911 5.19786096 8.21428571 5.51389526 8.21428571 5.90374332 8.21428571 6.29359137 7.89448911 6.60962567 7.5 6.60962567L5.71428571 6.60962567C5.31979661 6.60962567 5 6.29359137 5 5.90374332 5 5.51389526 5.31979661 5.19786096 5.71428571 5.19786096L7.5 5.19786096zM7.5 11.1871658C7.89448911 11.1871658 8.21428571 11.5032001 8.21428571 11.8930481 8.21428571 12.2828962 7.89448911 12.5989305 7.5 12.5989305L5.71428571 12.5989305C5.31979661 12.5989305 5 12.2828962 5 11.8930481 5 11.5032001 5.31979661 11.1871658 5.71428571 11.1871658L7.5 11.1871658zM7.5 8.19251337C7.89448911 8.19251337 8.21428571 8.50854766 8.21428571 8.89839572 8.21428571 9.28824378 7.89448911 9.60427807 7.5 9.60427807L5 9.60427807C4.60551089 9.60427807 4.28571429 9.28824378 4.28571429 8.89839572 4.28571429 8.50854766 4.60551089 8.19251337 5 8.19251337L7.5 8.19251337z"/>
  </g>
</svg>
